<svg width="159" height="127" viewBox="0 0 159 127" fill="none" xmlns="http://www.w3.org/2000/svg">
<ellipse cx="79.5" cy="122" rx="79.5" ry="5" fill="#201A5F"/>
<path d="M30.5171 107.588L28.0004 121.845H52.1885L51.0431 107.588H37.329H30.5171Z" fill="#FFC661"/>
<path d="M71.7343 0.120564C55.1869 0.241128 40.4781 11.1974 36.0624 27.157C35.2788 30.0204 34.7212 33.0345 34.4499 36.1692C32.8072 53.9373 37.3284 107.588 37.3284 107.588H55.1116C53.499 86.1279 52.9716 62.9193 53.2278 38.6709C53.499 12.8099 71.2822 0.120564 89.9395 0.120564V0L71.7494 0.135634L71.7343 0.120564Z" fill="#F9AE28"/>
<path d="M51.0421 107.588L52.1875 121.845H149.859L147.328 107.588H139.431H55.1112H51.0421Z" fill="#FFE9C0"/>
<path d="M53.2128 38.6704C52.9566 62.9339 53.484 86.1274 55.0966 107.588H139.416C138.225 85.6752 136.236 59.6485 131.594 35.7015C127.043 12.1011 108.054 0.10498 89.9094 0.10498C71.7645 0.10498 53.469 12.7943 53.1977 38.6553L53.2128 38.6704Z" fill="#FFDB9A"/>
<path d="M125.34 77.5229C125.34 77.5229 123.411 76.8297 121.663 75.3829C119.914 73.921 118.965 72.0674 118.965 72.0674C118.965 72.0674 121 72.5044 122.808 74.0115C124.616 75.5336 125.325 77.5229 125.325 77.5229H125.34Z" fill="#F9AE28"/>
<path d="M78.9834 27.2322C78.9834 27.2322 76.7379 25.3634 74.8239 22.4548C73.8745 20.993 73.2265 19.5312 72.8347 18.4461C72.4429 17.3459 72.3072 16.6226 72.3072 16.6226C72.3072 16.6226 74.4171 18.6269 76.316 21.4903C78.2149 24.3688 78.9834 27.2322 78.9834 27.2322V27.2322Z" fill="#F9AE28"/>
<path d="M117.683 15.7787C116.312 18.1146 114.684 20.0135 113.358 21.2191C112.047 22.4399 111.098 22.9975 111.098 22.9975C111.098 22.9975 111.746 22.0932 112.68 20.6465C113.63 19.1846 114.82 17.1501 116.146 14.8895C116.945 13.5633 117.683 12.3125 118.347 11.1973C118.708 11.5439 119.07 11.9056 119.432 12.2522C118.98 13.3674 118.407 14.5731 117.698 15.7787H117.683Z" fill="#F9AE28"/>
<path d="M125.174 107.588C119.537 102.072 115.634 97.2197 115.634 97.2197C115.634 97.2197 121.225 101.349 127.344 107.211C127.48 107.347 127.6 107.468 127.721 107.588H125.174V107.588Z" fill="#F9AE28"/>
<path d="M75.8632 74.1618C73.3162 76.3923 70.7995 77.839 70.7995 77.839C70.7995 77.839 72.0504 75.1414 74.6877 72.8356C75.9988 71.6752 77.3853 70.8614 78.4402 70.3641C79.4952 69.8668 80.1885 69.6558 80.1885 69.6558C80.1885 69.6558 78.3799 71.9163 75.8632 74.1618Z" fill="#F9AE28"/>
<path d="M53.2124 40.3735C54.6592 41.5189 56.2416 42.7999 57.8994 44.1713C64.1084 49.3857 68.9912 53.8918 68.9912 53.8918C68.9912 53.8918 63.0384 50.8174 56.7691 45.5427C55.4881 44.4727 54.2975 43.4178 53.2124 42.393C53.2124 41.7148 53.2124 41.0517 53.2124 40.3735V40.3735Z" fill="#F9AE28"/>
<path d="M68.3274 102.253C71.0551 98.4853 73.6775 95.1547 75.7572 92.879C77.8219 90.6034 79.2686 89.3525 79.2686 89.3525C79.2686 89.3525 78.1533 90.8897 76.4504 93.4216C74.7323 95.9534 72.5019 99.5101 69.7591 103.293C68.6288 104.86 67.5287 106.231 66.519 107.588H64.6352C65.66 105.87 66.9862 104.061 68.3124 102.238L68.3274 102.253Z" fill="#F9AE28"/>
<path d="M65.9311 96.0142H127.147L127.087 95.0647C125.565 72.5042 123.335 53.8017 120.26 37.9023C116.764 19.7876 102.507 11.6797 89.9384 11.6797C77.3696 11.6797 65.0118 18.793 64.8008 38.7915C64.5899 59.7395 64.9515 78.1858 65.901 95.1853L65.9462 96.0292L65.9311 96.0142ZM125.233 94.2358H67.6039C66.6846 77.5076 66.338 59.3627 66.549 38.8066C66.7449 20.1192 78.741 13.458 89.9082 13.458C101.754 13.458 115.181 21.1289 118.482 38.249C121.496 53.8469 123.711 72.1726 125.218 94.2358H125.233Z" fill="#F9AE28"/>
<path d="M87.59 46.9814C87.88 44.5314 86.2 41.9914 83.52 40.8014C81.52 39.9114 79.05 39.7514 76.37 40.3114L76 40.6514L76.99 59.2514L80.85 59.1114L80.52 52.9214C80.97 52.8214 81.43 52.7014 81.89 52.5614C83.55 54.9214 85.07 57.3814 86.36 59.9114L89.86 58.4514C88.53 55.8314 86.95 53.3014 85.25 50.8614C86.56 49.8014 87.43 48.4214 87.59 46.9814V46.9814ZM80.02 43.5614C80.65 43.6114 81.28 43.7214 81.87 43.9714C83.06 44.4914 83.87 45.6114 83.75 46.5614C83.66 47.2914 83.04 48.0714 82.12 48.5914C81.58 48.9014 80.96 49.1214 80.32 49.3014L80.01 43.5514L80.02 43.5614Z" fill="#F9AE28"/>
<path d="M91.9502 41.2113L92.9002 59.6013L96.7502 59.4713L95.8102 41.0713L91.9502 41.2113Z" fill="#F9AE28"/>
<path d="M108.91 42.2315C106.68 40.1915 102.72 39.5415 99.79 40.5615L99.9 41.7715L100.61 59.2515L104.47 59.1515L104.29 54.7715C107.18 54.4315 109.75 52.6315 110.79 50.1315C111.9 47.4515 111.15 44.2715 108.91 42.2315V42.2315ZM107.18 48.8515C106.7 50.0115 105.48 50.9015 104.14 51.1915L103.83 43.6715C104.72 43.8015 105.57 44.1515 106.19 44.7215C107.32 45.7615 107.74 47.5015 107.17 48.8615L107.18 48.8515Z" fill="#F9AE28"/>
<path d="M139.5 107.5C139.5 112.3 135.833 119.167 134 122H143.5C144.667 121.333 146.7 118.2 145.5 111C145.1 113.8 141.333 118.167 139.5 120C140.333 117.833 141.5 112.3 139.5 107.5Z" fill="#3B3581"/>
<path d="M44.4999 95C39.2999 108.6 43.3332 118.667 45.9999 122H60.5C62.5 117.2 59.6667 109 58 105.5C58 107.333 57.7 112 56.5 116C54 115.5 52 107.5 49.5 101C48.3 103.4 49 108.667 49.5 111C44 107 44.4999 102 44.4999 95Z" fill="#3B3581"/>
</svg>
