<svg width="14" height="16" viewBox="0 0 14 16" fill="none" xmlns="http://www.w3.org/2000/svg">
<path d="M0 5.69715L3.07625 16H10.6609L13.4208 5.69715L11.5681 0H1.97784L0 5.69715Z" fill="black"/>
<path fill-rule="evenodd" clip-rule="evenodd" d="M6.66688 1.68262C7.05083 1.68262 7.36208 1.99387 7.36208 2.37782V13.6887C7.36208 14.0726 7.05083 14.3839 6.66688 14.3839C6.28293 14.3839 5.97168 14.0726 5.97168 13.6887V2.37782C5.97168 1.99387 6.28293 1.68262 6.66688 1.68262Z" fill="#F9AE28"/>
<path fill-rule="evenodd" clip-rule="evenodd" d="M2.87793 5.39442C2.87793 5.01047 3.18918 4.69922 3.57313 4.69922H9.75692C10.1409 4.69922 10.4521 5.01047 10.4521 5.39442C10.4521 5.77837 10.1409 6.08962 9.75692 6.08962H3.57313C3.18918 6.08962 2.87793 5.77837 2.87793 5.39442Z" fill="#F9AE28"/>
</svg>
