<svg width="402" height="47" viewBox="0 0 402 47" fill="none" xmlns="http://www.w3.org/2000/svg">
<path d="M13.35 7.17L4.19 7.46L2.65 17.24H0L0.82 5H30.17L30.7 17.24H28.15L26.8 7.46L17.5 7.17V38.3L24.39 38.73V40.8H7.04V38.73L13.35 38.3V7.17V7.17Z" fill="black"/>
<path d="M39.2304 4.36984L34.9404 3.93984V2.15984L42.0704 1.33984H42.1704L43.0904 1.96984V13.4298L42.9904 17.4298C44.0204 16.4998 45.4604 15.5998 47.3304 14.7298C49.2004 13.8598 51.0204 13.4298 52.8204 13.4298C54.8404 13.4298 56.4204 13.8098 57.5404 14.5798C58.6604 15.3498 59.4504 16.5498 59.9004 18.1698C60.3504 19.7898 60.5804 21.9898 60.5804 24.7498V38.3398L64.1004 38.7198V40.7898H53.3004V38.7198L56.6704 38.3398V24.6998C56.6704 22.6398 56.5304 21.0398 56.2604 19.8798C55.9904 18.7298 55.4504 17.8598 54.6504 17.2798C53.8504 16.6998 52.6704 16.4098 51.1304 16.4098C49.8404 16.4098 48.4604 16.7198 46.9904 17.3498C45.5104 17.9798 44.2104 18.7298 43.0904 19.5898V38.3398L46.6604 38.7198V40.7898H36.2004V38.7198L39.2404 38.3798V4.36984H39.2304Z" fill="black"/>
<path d="M73.3704 37.5098C71.3604 34.9498 70.3604 31.5598 70.3604 27.3198C70.3604 24.5898 70.8903 22.1598 71.9503 20.0398C73.0103 17.9198 74.4804 16.2698 76.3604 15.0998C78.2404 13.9298 80.3503 13.3398 82.7003 13.3398C85.5603 13.3398 87.7804 14.1598 89.3704 15.7998C90.9604 17.4398 91.8203 19.7998 91.9503 22.8798C91.9503 24.8698 91.8504 26.2798 91.6604 27.1198H74.5004C74.5004 30.4898 75.2604 33.2498 76.7904 35.3798C78.3104 37.5198 80.4604 38.5798 83.2204 38.5798C84.5704 38.5798 85.9504 38.3398 87.3704 37.8598C88.7804 37.3798 89.8804 36.7998 90.6504 36.1198L91.4203 37.8998C90.4903 38.8598 89.1303 39.6698 87.3503 40.3298C85.5703 40.9898 83.7804 41.3198 81.9804 41.3198C78.2504 41.3198 75.3803 40.0398 73.3803 37.4898L73.3704 37.5098ZM87.6104 24.8598C87.7104 24.1898 87.7504 23.4798 87.7504 22.7398C87.7204 20.6198 87.2104 18.9298 86.2304 17.6798C85.2504 16.4298 83.7504 15.7998 81.7204 15.7998C77.3204 15.7998 74.9204 18.8198 74.5404 24.8598H87.6003H87.6104Z" fill="black"/>
<path d="M117.06 7.6L113.01 7.07V5H125.83V7.07L121.01 7.6V38.3L134.75 37.91L137.45 30.39L139.76 30.78L137.98 40.8H112.92V38.73L117.07 38.3V7.6H117.06Z" fill="black"/>
<path d="M150.26 27.0003C153.34 25.6003 157.18 24.8503 161.78 24.7603V23.2603C161.78 21.6203 161.61 20.3303 161.27 19.3803C160.93 18.4303 160.35 17.7403 159.51 17.3103C158.67 16.8803 157.5 16.6603 155.99 16.6603C154.35 16.6603 152.87 16.9103 151.53 17.4103C150.2 17.9103 148.9 18.5103 147.65 19.2203L146.59 17.1003C146.94 16.7803 147.68 16.3303 148.81 15.7503C149.93 15.1703 151.22 14.6603 152.67 14.2103C154.12 13.7603 155.51 13.5303 156.86 13.5303C159.04 13.5303 160.77 13.8403 162.04 14.4503C163.31 15.0603 164.22 16.0403 164.79 17.3903C165.35 18.7403 165.63 20.5503 165.63 22.8303V38.7303H168.62V40.5103C166.85 40.9903 165.36 41.2303 164.14 41.2303C163.37 41.2303 162.84 41.1103 162.55 40.8703C162.26 40.6303 162.12 40.0703 162.12 39.2003V37.4203C160.96 38.4503 159.7 39.3603 158.34 40.1403C156.98 40.9303 155.42 41.3203 153.69 41.3203C151.38 41.3203 149.46 40.6803 147.93 39.3903C146.4 38.1003 145.64 36.2303 145.64 33.7503C145.64 30.6303 147.18 28.3803 150.27 26.9803L150.26 27.0003ZM158.36 37.6303C159.61 37.0503 160.75 36.3603 161.78 35.5603V27.0303C157.89 27.0603 154.94 27.6403 152.94 28.7603C150.93 29.8903 149.93 31.4003 149.93 33.2903C149.93 35.1803 150.4 36.4503 151.33 37.2603C152.26 38.0803 153.53 38.4903 155.14 38.4903C156.04 38.4903 157.11 38.2003 158.37 37.6203L158.36 37.6303Z" fill="black"/>
<path d="M178.55 37.0002C178.9 37.5502 179.64 38.0302 180.77 38.4402C181.89 38.8602 183.1 39.0702 184.38 39.0702C188.3 39.0702 190.26 37.6202 190.26 34.7302C190.26 33.4202 189.71 32.3402 188.62 31.5302C187.53 30.7102 185.66 29.8002 183.03 28.8102C180.43 27.8802 178.53 26.7702 177.34 25.4902C176.15 24.2002 175.56 22.4902 175.56 20.3302C175.56 18.9502 175.99 17.7502 176.84 16.7202C177.69 15.6902 178.83 14.9002 180.26 14.3302C181.69 13.7702 183.24 13.4902 184.91 13.4902C186.58 13.4902 187.92 13.6302 189.03 13.9202C190.14 14.2102 191.24 14.5602 192.33 14.9802V20.7102H189.97L189.1 17.1902C188.88 16.7702 188.31 16.4202 187.39 16.1302C186.47 15.8402 185.47 15.7002 184.38 15.7002C182.84 15.7002 181.59 16.0502 180.62 16.7402C179.66 17.4302 179.17 18.3502 179.17 19.5102C179.17 20.5402 179.41 21.3902 179.89 22.0602C180.37 22.7402 180.97 23.2702 181.67 23.6702C182.38 24.0702 183.36 24.5302 184.61 25.0502L185.53 25.4302C187.36 26.1402 188.84 26.8102 189.96 27.4302C191.08 28.0502 192.02 28.8702 192.75 29.8902C193.49 30.9002 193.86 32.1602 193.86 33.6702C193.86 36.0402 192.95 37.9202 191.14 39.2802C189.32 40.6502 186.91 41.3302 183.89 41.3302C182.51 41.3302 180.93 41.1102 179.17 40.6602C177.41 40.2102 176.09 39.7602 175.22 39.3102V33.2402H177.82L178.54 37.0002H178.55Z" fill="black"/>
<path d="M205.39 40.16C204.52 39.37 204.09 37.97 204.09 35.94V16.9H200.43V15.02C202.04 14.67 202.97 14.41 203.22 14.25C203.7 13.99 204.05 13.49 204.28 12.75C204.47 12.27 204.73 11.4 205.05 10.15C205.37 8.89996 205.61 7.91996 205.77 7.20996H207.99V14.06H216.52V16.9H207.99V32.51C207.99 34.37 208.05 35.68 208.18 36.44C208.31 37.2 208.57 37.69 208.95 37.91C209.33 38.13 210.01 38.25 210.97 38.25C211.9 38.25 212.95 38.12 214.1 37.87C215.26 37.61 216.12 37.34 216.7 37.05L217.33 38.88C216.59 39.46 215.37 40.01 213.67 40.55C211.97 41.08 210.49 41.34 209.24 41.34C207.54 41.34 206.25 40.95 205.38 40.16H205.39Z" fill="black"/>
<path d="M248.77 7.17L243.32 7.46L238.07 17.24H235.42L239.95 5H261.88L266.12 17.24H263.56L258.5 7.46L252.91 7.17V38.3L259.8 38.73V40.8H242.45V38.73L248.76 38.3V7.17H248.77Z" fill="black"/>
<path d="M278.04 38.7801L281.9 38.4901V17.2401L278.19 16.4201V14.2501L284.31 13.4801H284.4L285.32 14.2501V15.0201L285.23 18.6801H285.32C285.39 18.6101 285.81 18.1201 286.6 17.2101C287.39 16.2901 288.56 15.4201 290.12 14.5801C291.68 13.7401 293.24 13.3301 294.82 13.3301C295.33 13.3301 295.82 13.4001 296.26 13.5201V17.7601C296.13 17.6601 295.85 17.5601 295.42 17.4701C294.99 17.3701 294.53 17.3301 294.05 17.3301C292.22 17.3301 290.66 17.6001 289.38 18.1501C288.09 18.7001 286.9 19.3701 285.81 20.1701V38.4301L292.22 38.8201V40.8001H278.05V38.7801H278.04Z" fill="black"/>
<path d="M306.86 27.0003C309.94 25.6003 313.78 24.8503 318.38 24.7603V23.2603C318.38 21.6203 318.21 20.3303 317.88 19.3803C317.54 18.4303 316.95 17.7403 316.12 17.3103C315.28 16.8803 314.11 16.6603 312.6 16.6603C310.96 16.6603 309.48 16.9103 308.14 17.4103C306.8 17.9103 305.51 18.5103 304.26 19.2203L303.2 17.1003C303.55 16.7803 304.29 16.3303 305.42 15.7503C306.54 15.1703 307.83 14.6603 309.27 14.2103C310.72 13.7603 312.12 13.5303 313.47 13.5303C315.65 13.5303 317.38 13.8403 318.65 14.4503C319.92 15.0603 320.83 16.0403 321.39 17.3903C321.95 18.7403 322.23 20.5503 322.23 22.8303V38.7303H325.22V40.5103C323.45 40.9903 321.96 41.2303 320.74 41.2303C319.97 41.2303 319.44 41.1103 319.15 40.8703C318.86 40.6303 318.72 40.0703 318.72 39.2003V37.4203C317.56 38.4503 316.3 39.3603 314.94 40.1403C313.57 40.9303 312.02 41.3203 310.29 41.3203C307.98 41.3203 306.06 40.6803 304.53 39.3903C303.01 38.1003 302.24 36.2303 302.24 33.7503C302.24 30.6303 303.78 28.3803 306.87 26.9803L306.86 27.0003ZM314.95 37.6303C316.2 37.0503 317.34 36.3603 318.37 35.5603V27.0303C314.49 27.0603 311.54 27.6403 309.53 28.7603C307.52 29.8903 306.52 31.4003 306.52 33.2903C306.52 35.1803 306.98 36.4503 307.92 37.2603C308.85 38.0803 310.12 38.4903 311.72 38.4903C312.62 38.4903 313.7 38.2003 314.95 37.6203V37.6303Z" fill="black"/>
<path d="M329.12 14.0598H339.34V16.0298L335.77 16.6598L340.93 30.9698L343.29 37.8098L345.31 31.2098L350.47 16.6498L347.1 16.0198V14.0498H356.31V16.0198L353.85 16.6498L344.35 41.1798H341.12L331.39 16.6498L329.13 16.0198V14.0498L329.12 14.0598Z" fill="black"/>
<path d="M363.99 37.5098C361.98 34.9498 360.98 31.5598 360.98 27.3198C360.98 24.5898 361.51 22.1598 362.57 20.0398C363.63 17.9198 365.1 16.2698 366.98 15.0998C368.86 13.9298 370.97 13.3398 373.32 13.3398C376.18 13.3398 378.4 14.1598 379.99 15.7998C381.58 17.4398 382.44 19.7998 382.57 22.8798C382.57 24.8698 382.48 26.2798 382.28 27.1198H365.12C365.12 30.4898 365.88 33.2498 367.41 35.3798C368.93 37.5198 371.08 38.5798 373.84 38.5798C375.19 38.5798 376.57 38.3398 377.99 37.8598C379.4 37.3798 380.5 36.7998 381.27 36.1198L382.04 37.8998C381.11 38.8598 379.75 39.6698 377.97 40.3298C376.19 40.9898 374.4 41.3198 372.6 41.3198C368.87 41.3198 366 40.0398 364 37.4898L363.99 37.5098ZM378.23 24.8598C378.33 24.1898 378.37 23.4798 378.37 22.7398C378.34 20.6198 377.83 18.9298 376.85 17.6798C375.87 16.4298 374.37 15.7998 372.34 15.7998C367.94 15.7998 365.54 18.8198 365.16 24.8598H378.22H378.23Z" fill="black"/>
<path d="M393.27 4.36984L389.17 3.93984V2.15984L396.21 1.33984H396.26L397.18 1.96984V38.3998L401.71 38.7398V40.8098H389.04V38.7398L393.28 38.3598V4.36984H393.27Z" fill="black"/>
<path d="M231.99 16.39L240.84 46.03H262.66L270.6 16.39L265.27 0H237.68L231.99 16.39Z" fill="black"/>
<path d="M251.17 6.83984V39.3798" stroke="#F9AE28" stroke-width="4" stroke-linecap="round" stroke-linejoin="round"/>
<path d="M260.06 15.5195H242.27" stroke="#F9AE28" stroke-width="4" stroke-linecap="round" stroke-linejoin="round"/>
</svg>
