<svg width="150" height="168" viewBox="0 0 150 168" fill="none" xmlns="http://www.w3.org/2000/svg">
<ellipse cx="63.6204" cy="133.562" rx="45.0247" ry="13.5074" fill="#201A5F"/>
<g filter="url(#filter0_d_513_3429)">
<path d="M24.7034 127.164C24.7034 127.164 22.599 139.095 23.6467 140.152C24.7035 141.209 28.2079 143.666 29.2647 142.609C30.3215 141.552 32.426 134.886 32.426 134.886C32.426 134.886 32.4259 142.609 33.4827 143.666C34.5395 144.722 39.1007 147.522 40.1575 146.122C41.2143 144.722 45.071 138.752 45.071 138.752C45.071 138.752 43.671 146.122 45.071 147.531C46.48 148.94 49.9845 149.636 51.3935 148.236C52.8026 146.836 53.1458 142.97 55.9548 142.266C58.7638 141.561 68.9431 143.666 74.9133 143.666C80.8836 143.666 74.5611 136.295 76.6656 134.886C78.7701 133.486 81.5791 137.343 84.7404 137.343C87.9016 137.343 102.642 133.477 106.156 119.441C109.669 105.396 105.514 80.4222 80.8837 75.0751C57.2284 69.9449 41.9188 75.2106 33.835 82.9332C25.7602 90.6557 20.8467 100.13 20.8467 108.91C20.8467 117.689 24.7034 127.164 24.7034 127.164V127.164Z" fill="white"/>
<path d="M36.2914 123.885C36.2914 123.885 33.3649 126.938 34.1778 128.275C34.9907 129.612 36.8965 127.019 36.2914 123.885Z" fill="#5E63B6"/>
<path d="M38.6033 124.157C38.6033 124.157 36.3091 128.176 37.9349 129.531C39.5607 130.886 40.1027 125.855 38.6033 124.157Z" fill="#5E63B6"/>
<path d="M51.4029 102.849C56.6325 100.935 64.8157 103.391 66.6492 111.222C68.3834 118.592 68.1756 126.794 61.4737 127.959C54.7809 129.124 44.2946 127.083 44.0055 120.39C43.7165 113.697 45.812 104.891 51.3939 102.849H51.4029Z" fill="#3B3581" fill-opacity="0.6"/>
<path d="M53.6334 102.849C58.863 100.935 67.0462 103.391 68.8797 111.222C70.6139 118.592 70.4062 126.794 63.7043 127.959C57.0114 129.124 46.525 127.083 46.236 120.39C45.947 113.697 48.0425 104.891 53.6244 102.849H53.6334Z" fill="#3B3581"/>
<path d="M25.5428 116.642C23.1583 115.251 22.7067 108.811 24.8564 104.259C26.8344 100.068 31.9647 99.2278 34.5298 100.537C37.086 101.856 38.504 108.802 37.7182 113.192C36.9414 117.581 29.4538 118.909 25.5519 116.642H25.5428Z" fill="#3B3581" fill-opacity="0.6"/>
<path d="M27.7645 116.642C25.38 115.251 24.9284 108.811 27.078 104.259C29.0561 100.068 34.1863 99.2278 36.7515 100.537C39.3076 101.856 40.7257 108.802 39.9399 113.192C39.1631 117.581 31.6754 118.909 27.7735 116.642H27.7645Z" fill="#3B3581"/>
<ellipse cx="65.5648" cy="81.064" rx="14.4515" ry="4.06448" fill="#F6F2FF"/>
<path d="M127.215 54.2296C121.498 53.6515 115.6 51.8361 112.113 50.6077C111.436 50.3728 111.59 49.3703 112.303 49.3522C115.636 49.2619 120.26 49.0722 120.215 48.729C119.791 45.3238 89.3794 37.1046 78.8117 33.4646C74.6569 32.0375 70.8002 31.2788 67.657 30.8994C63.3215 30.3665 56.2403 21.6776 53.5216 21.0634C52.221 20.7653 46.6571 21.515 43.4959 23.3847C40.434 25.1911 39.8649 28.1266 39.8649 28.1266C33.0998 29.3549 30.1734 34.2865 30.345 34.6659C30.4444 34.8736 38.6095 33.7897 40.8223 33.7807C43.0352 33.7807 43.6675 35.3523 44.0017 36.7433C44.3359 38.1252 45.1397 39.1458 45.3746 39.0826C45.6094 39.0103 44.9049 37.231 45.6365 38.1704C45.9436 38.5678 46.8107 40.5729 47.7229 42.7858C49.4391 46.9677 52.51 50.4451 56.4571 52.6399C61.8222 55.6296 68.5873 62.3044 69.2737 62.4037C69.9602 62.5031 70.0053 65.7908 70.0595 66.405C70.1137 67.0192 69.6712 68.8166 68.3976 70.3249C66.8079 72.2127 64.5138 76.9907 62.7525 77.09C60.9912 77.1804 56.0777 81.4887 56.3396 81.7236C56.6016 81.9584 57.0171 82.6719 58.5345 81.5971C59.1035 81.1997 61.6596 79.6733 62.2106 79.312C62.7615 78.9507 64.1976 79.9804 64.7034 79.5017C65.3086 78.9236 64.4325 78.481 64.4505 78.0565C64.4686 77.641 66.7538 75.3107 67.7112 74.1546C68.6686 72.9985 71.8569 71.2011 72.2182 70.6772C72.5795 70.1533 73.7537 65.9534 73.9885 66.685C74.2324 67.4166 72.5705 71.454 71.8118 72.3752C71.0531 73.3056 69.066 75.6088 67.937 76.3313C66.808 77.0539 67.2325 76.9546 66.1125 78.49C64.9925 80.0165 61.0815 83.241 61.9848 83.4668C62.897 83.7016 64.2338 83.2319 65.5886 82.2655C66.9434 81.29 67.2505 79.872 68.6957 80.5855C70.1499 81.2991 71.8931 82.1571 72.2363 82.3197C72.5885 82.4823 72.8595 81.9855 73.5731 82.0578C74.2866 82.13 74.4401 83.4126 74.5666 82.699C74.6931 81.9945 74.3498 81.5249 73.9524 81.2539C73.555 80.9829 74.4763 80.9558 73.5821 80.4952C72.3176 79.8358 69.4183 79.0771 69.2376 78.21C69.075 77.4062 77.1859 69.9727 77.5563 69.5753C77.9266 69.1779 79.6788 62.5211 80.4466 62.2411C81.2233 61.9611 104.264 57.3096 110.668 57.3547C119.529 57.4179 136.103 55.1418 127.197 54.2386L127.215 54.2296Z" fill="#363238"/>
<mask id="mask0_513_3429" style="mask-type:alpha" maskUnits="userSpaceOnUse" x="45" y="26" width="8" height="6">
<path d="M45.3121 29.6173C45.2037 26.3748 50.7043 25.3541 52.1495 28.3618C53.8385 31.8934 45.4295 33.1128 45.3121 29.6173Z" fill="white"/>
</mask>
<g mask="url(#mask0_513_3429)">
<rect x="41.1768" y="24.6128" width="14.4515" height="9.03219" fill="white"/>
<path d="M47.525 29.8341C48.4179 29.8341 49.1417 29.1103 49.1417 28.2173C49.1417 27.3244 48.4179 26.6006 47.525 26.6006C46.6321 26.6006 45.9082 27.3244 45.9082 28.2173C45.9082 29.1103 46.6321 29.8341 47.525 29.8341Z" fill="#5E63B6"/>
</g>
</g>
<defs>
<filter id="filter0_d_513_3429" x="0.84668" y="0" width="148.902" height="168" filterUnits="userSpaceOnUse" color-interpolation-filters="sRGB">
<feFlood flood-opacity="0" result="BackgroundImageFix"/>
<feColorMatrix in="SourceAlpha" type="matrix" values="0 0 0 0 0 0 0 0 0 0 0 0 0 0 0 0 0 0 127 0" result="hardAlpha"/>
<feOffset dy="-1"/>
<feGaussianBlur stdDeviation="10"/>
<feComposite in2="hardAlpha" operator="out"/>
<feColorMatrix type="matrix" values="0 0 0 0 0.443137 0 0 0 0 0.278431 0 0 0 0 0.827451 0 0 0 0.2 0"/>
<feBlend mode="normal" in2="BackgroundImageFix" result="effect1_dropShadow_513_3429"/>
<feBlend mode="normal" in="SourceGraphic" in2="effect1_dropShadow_513_3429" result="shape"/>
</filter>
</defs>
</svg>
