<svg width="2100" height="283" viewBox="0 0 2100 283" fill="none" xmlns="http://www.w3.org/2000/svg">
<rect y="160" width="2100" height="123" fill="#3B3581"/>
<path d="M0 150L87.5 134.001C175 118.002 350 86.0028 525 91.3026C700 97.0023 875 139.001 1050 139.301C1225 139.001 1400 97.0023 1575 86.0028C1750 75.0032 1925 97.0023 2012.5 107.302L2100 118.002V160H0V150Z" fill="#3B3581"/>
<path d="M756.483 72.4467C757.522 85.2399 747.982 96.4476 735.188 97.4727C722.395 98.5115 711.187 88.9713 710.162 76.1781C709.124 63.3849 718.664 52.1772 731.457 51.1521C744.25 50.1133 755.458 59.6535 756.483 72.4467Z" fill="#3B3581"/>
<path d="M761.281 59.7406L703.381 64.4194L708.519 128L766.419 123.322L761.281 59.7406Z" fill="#3B3581"/>
<path d="M730.498 0.0722338L723.005 0.677734L727.464 55.8531L734.957 55.2476L730.498 0.0722338Z" fill="#3B3581"/>
<path d="M748.198 13.0475L707.613 16.3271L708.219 23.8201L748.803 20.5405L748.198 13.0475Z" fill="#3B3581"/>
<path d="M551.046 42.9409L543.643 44.2476L556.353 116.258L563.756 114.951L551.046 42.9409Z" fill="#3B3581"/>
<path d="M570.845 59.5619L530.747 66.6323L532.052 74.0355L572.151 66.9651L570.845 59.5619Z" fill="#3B3581"/>
<path d="M672.363 45.8963L664.441 47.333L678.43 124.46L686.351 123.024L672.363 45.8963Z" fill="#3B3581"/>
<path d="M693.632 63.6878L650.687 71.4536L652.121 79.389L695.067 71.6232L693.632 63.6878Z" fill="#3B3581"/>
<path d="M1132.79 74.3594L1125.41 75.8105L1139.53 147.559L1146.91 146.108L1132.79 74.3594Z" fill="#3B3581"/>
<path d="M1152.91 90.6025L1112.96 98.4692L1114.41 105.845L1154.36 97.9782L1152.91 90.6025Z" fill="#3B3581"/>
<path d="M1427.82 33.9998L1420.88 36.8887L1448.98 104.397L1455.92 101.508L1427.82 33.9998Z" fill="#3B3581"/>
<path d="M1450.77 45.9777L1413.17 61.6118L1416.06 68.5529L1453.65 52.9188L1450.77 45.9777Z" fill="#3B3581"/>
<path d="M415.86 28.3069L394.029 110.641L402.498 112.886L424.328 30.5523L415.86 28.3069Z" fill="#3B3581"/>
<path d="M391.245 45.6169L389 54.0854L434.844 66.2407L437.089 57.7721L391.245 45.6169Z" fill="#3B3581"/>
<path d="M1321.77 38.2863L1300.77 117.572L1308.92 119.732L1329.93 40.4462L1321.77 38.2863Z" fill="#3B3581"/>
<path d="M1298.16 55.0654L1296 63.2168L1340.14 74.9201L1342.3 66.7687L1298.16 55.0654Z" fill="#3B3581"/>
<path d="M1023.14 76.4425L1004.41 147.127L1011.68 149.052L1030.41 78.3679L1023.14 76.4425Z" fill="#3B3581"/>
<path d="M1002.06 91.3568L1000.13 98.623L1039.49 109.058L1041.42 101.792L1002.06 91.3568Z" fill="#3B3581"/>
<path d="M905.296 81.5727L897.902 82.9297L911.103 154.852L918.496 153.495L905.296 81.5727Z" fill="#3B3581"/>
<path d="M925.212 98.0479L885.163 105.391L886.519 112.785L926.568 105.442L925.212 98.0479Z" fill="#3B3581"/>
<path d="M1661.62 30.3465L1654.24 28.896L1640.13 100.645L1647.51 102.096L1661.62 30.3465Z" fill="#3B3581"/>
<path d="M1674.1 52.9801L1634.15 45.1167L1632.7 52.4925L1672.65 60.356L1674.1 52.9801Z" fill="#3B3581"/>
<path d="M1159.1 137.704V93.2829C1159.1 80.4487 1169.5 70.0474 1182.34 70.0474H1194.64C1207.47 70.0474 1217.87 80.4487 1217.87 93.2829V137.635L1159.1 137.704Z" fill="#3B3581"/>
<path d="M1191.42 24H1184.96V71.6465H1191.42V24Z" fill="#3B3581"/>
<path d="M1205.72 36.3418H1170.68V42.8067H1205.72V36.3418Z" fill="#3B3581"/>
<path d="M473.434 114.974V70.5529C473.434 57.7187 483.835 47.3174 496.669 47.3174H508.97C521.804 47.3174 532.206 57.7187 532.206 70.5529V114.905L473.434 114.974Z" fill="#3B3581"/>
<path d="M505.745 1.27051H499.28V48.917H505.745V1.27051Z" fill="#3B3581"/>
<path d="M520.042 13.6123H484.997V20.0772H520.042V13.6123Z" fill="#3B3581"/>
</svg>
